<?xml version="1.0" encoding="UTF-8" standalone="no"?>
<!-- Created with Inkscape (http://www.inkscape.org/) -->

<svg
   xmlns:dc="http://purl.org/dc/elements/1.1/"
   xmlns:cc="http://creativecommons.org/ns#"
   xmlns:rdf="http://www.w3.org/1999/02/22-rdf-syntax-ns#"
   xmlns:svg="http://www.w3.org/2000/svg"
   xmlns="http://www.w3.org/2000/svg"
   xmlns:sodipodi="http://sodipodi.sourceforge.net/DTD/sodipodi-0.dtd"
   xmlns:inkscape="http://www.inkscape.org/namespaces/inkscape"
   width="100"
   height="100"
   viewBox="0 0 26.458334 26.458334"
   version="1.1"
   id="svg920"
   sodipodi:docname="logo.svg"
   inkscape:version="0.92.3 (2405546, 2018-03-11)">
  <defs
     id="defs914" />
  <sodipodi:namedview
     id="base"
     pagecolor="#ffffff"
     bordercolor="#666666"
     borderopacity="1.0"
     inkscape:pageopacity="0.0"
     inkscape:pageshadow="2"
     inkscape:zoom="5.6568543"
     inkscape:cx="-25.844697"
     inkscape:cy="58.309311"
     inkscape:document-units="mm"
     inkscape:current-layer="layer1"
     showgrid="false"
     units="px"
     inkscape:window-width="1920"
     inkscape:window-height="1001"
     inkscape:window-x="-9"
     inkscape:window-y="-9"
     inkscape:window-maximized="1"
     inkscape:snap-bbox="true"
     inkscape:bbox-nodes="true"
     inkscape:snap-bbox-midpoints="false"
     inkscape:object-paths="true"
     inkscape:object-nodes="true"
     inkscape:snap-global="true" />
  <metadata
     id="metadata917">
    <rdf:RDF>
      <cc:Work
         rdf:about="">
        <dc:format>image/svg+xml</dc:format>
        <dc:type
           rdf:resource="http://purl.org/dc/dcmitype/StillImage" />
        <dc:title></dc:title>
      </cc:Work>
    </rdf:RDF>
  </metadata>
  <g
     inkscape:label="Layer 1"
     inkscape:groupmode="layer"
     id="layer1"
     transform="translate(0,-270.54163)">
    <circle
       style="opacity:1;fill:#0b3d91;fill-opacity:1;stroke:none;stroke-width:3.68535757;stroke-linecap:square;stroke-linejoin:bevel;stroke-miterlimit:4;stroke-dasharray:none;stroke-opacity:1"
       id="path826"
       cx="-182.24011"
       cy="218.54059"
       r="11.027738"
       transform="rotate(-42.63317)" />
    <path
       style="opacity:1;fill:#fc3d21;fill-opacity:1;stroke:none;stroke-width:13.92891026;stroke-linecap:square;stroke-linejoin:bevel;stroke-miterlimit:4;stroke-dasharray:none;stroke-opacity:1"
       d="M 92.396484 4.3476562 A 14.653684 64.055029 47.36683 0 0 39.71875 38.253906 A 14.653684 64.055029 47.36683 0 0 2.5175781 92.419922 A 14.653684 64.055029 47.36683 0 0 59.568359 59.814453 A 14.653684 64.055029 47.36683 0 0 96.767578 5.6503906 A 14.653684 64.055029 47.36683 0 0 92.396484 4.3476562 z M 86.720703 12.15625 A 9.0695247 53.220347 47.36683 0 1 88.335938 12.765625 A 9.0695247 53.220347 47.36683 0 1 55.324219 55.484375 A 9.0695247 53.220347 47.36683 0 1 10.027344 84.859375 A 9.0695247 53.220347 47.36683 0 1 43.039062 42.140625 A 9.0695247 53.220347 47.36683 0 1 86.720703 12.15625 z "
       transform="matrix(0.26458333,0,0,0.26458333,0,270.54163)"
       id="path828" />
    <path
       style="opacity:1;fill:#0b3d91;fill-opacity:1;stroke:none;stroke-width:3.68535757;stroke-linecap:square;stroke-linejoin:bevel;stroke-miterlimit:4;stroke-dasharray:none;stroke-opacity:1"
       d="m 6.3534912,275.98112 c -4.2125393,3.88712 -4.7902093,10.22286 -1.3381755,14.71699 2.8964209,-1.34408 7.4092893,-5.1497 8.8923803,-6.50587 1.639048,-1.59754 5.19018,-4.82853 7.195567,-8.19414 -4.127782,-3.92459 -10.503284,-3.92145 -14.7497718,-0.017 z"
       id="path826-0"
       inkscape:connector-curvature="0"
       sodipodi:nodetypes="cccccc" />
    <path
       style="opacity:1;fill:#041532;fill-opacity:1;stroke:none;stroke-width:3.68535757;stroke-linecap:square;stroke-linejoin:bevel;stroke-miterlimit:4;stroke-dasharray:none;stroke-opacity:1"
       d="m 20.960554,275.70626 c -2.09536,3.18567 -5.789931,6.47124 -7.428978,8.06878 -1.474988,1.34876 -5.8007054,5.24192 -8.6537451,6.74022 0.224526,0.30091 0.6017572,0.77301 0.8557873,1.04946 0.1129521,0.11953 0.228564,0.24778 0.3467489,0.36214 2.3375267,-1.40935 5.5133499,-3.89405 8.5850459,-6.72157 3.239219,-2.98332 6.012359,-6.01046 7.562724,-8.25102 -0.241491,-0.28517 -0.891018,-0.93243 -1.267583,-1.24801 z"
       id="path826-0-5"
       inkscape:connector-curvature="0"
       sodipodi:nodetypes="cccccccc" />
    <path
       style="fill:#041532;fill-opacity:1;stroke:none;stroke-width:0.26458332px;stroke-linecap:butt;stroke-linejoin:miter;stroke-opacity:1"
       d="m 3.5365316,288.14168 0.628653,1.30358 c -0.7797592,1.06618 -0.9862181,1.55906 -1.3767195,2.23598 l -2.20451585,1.42819 c 0.22350661,-0.63146 0.77845975,-2.36631 2.95258235,-4.96775 z"
       id="path1550"
       inkscape:connector-curvature="0"
       sodipodi:nodetypes="ccccc" />
    <path
       style="fill:#0b3d91;fill-opacity:1;stroke:none;stroke-width:0.26458332px;stroke-linecap:butt;stroke-linejoin:miter;stroke-opacity:1"
       d="m 3.4317827,293.12486 c 0,0 -2.1743424,0.84441 -2.99537781,0.57068 0.0743048,-0.45312 0.33753628,-1.1754 0.54650376,-1.61582 l 1.82706685,-0.4359 c 0,0 -0.9408562,1.77239 0.6218072,1.48104 z"
       id="path1552"
       inkscape:connector-curvature="0"
       sodipodi:nodetypes="ccccc" />
    <path
       style="fill:#041532;fill-opacity:1;stroke:none;stroke-width:0.26458332px;stroke-linecap:butt;stroke-linejoin:miter;stroke-opacity:1"
       d="m 19.912375,275.01608 c 0,0 1.485287,-0.89494 2.280368,-1.10689 0.441208,-0.67564 0.882417,-1.34887 1.323625,-2.05654 -0.496687,0.11288 -2.480881,0.80194 -4.856791,2.39218 0,0 0.9397,0.54469 1.252798,0.77125 z"
       id="path1558"
       inkscape:connector-curvature="0"
       sodipodi:nodetypes="ccccc" />
    <path
       style="fill:#0b3d91;fill-opacity:1;stroke:none;stroke-width:1;stroke-linecap:butt;stroke-linejoin:miter;stroke-miterlimit:4;stroke-dasharray:none;stroke-opacity:1"
       d="m 93.335938,4.3320312 c -2.175672,-0.082823 -4.455079,0.6230469 -4.455079,0.6230469 l -5.001953,7.7734379 c 5.702876,-1.898411 5.217019,2.333513 3.783374,5.427705 L 95.400891,4.7312212 c -0.613633,-0.2579811 -1.33973,-0.3715823 -2.064953,-0.39919 z"
       transform="matrix(0.26458333,0,0,0.26458333,0,270.54163)"
       id="path1560"
       inkscape:connector-curvature="0"
       sodipodi:nodetypes="sccccs" />
  </g>
</svg>
