<?xml version="1.0" encoding="UTF-8" standalone="no"?>
<!-- Created with Inkscape (http://www.inkscape.org/) -->

<svg
   xmlns:dc="http://purl.org/dc/elements/1.1/"
   xmlns:cc="http://creativecommons.org/ns#"
   xmlns:rdf="http://www.w3.org/1999/02/22-rdf-syntax-ns#"
   xmlns:svg="http://www.w3.org/2000/svg"
   xmlns="http://www.w3.org/2000/svg"
   xmlns:sodipodi="http://sodipodi.sourceforge.net/DTD/sodipodi-0.dtd"
   xmlns:inkscape="http://www.inkscape.org/namespaces/inkscape"
   width="128"
   height="128"
   viewBox="0 0 33.866668 33.866668"
   version="1.1"
   id="svg920"
   sodipodi:docname="logo.svg"
   inkscape:version="0.92.3 (2405546, 2018-03-11)">
  <defs
     id="defs914" />
  <sodipodi:namedview
     id="base"
     pagecolor="#ffffff"
     bordercolor="#666666"
     borderopacity="1.0"
     inkscape:pageopacity="0.0"
     inkscape:pageshadow="2"
     inkscape:zoom="5.6568543"
     inkscape:cx="55.238117"
     inkscape:cy="65.337896"
     inkscape:document-units="mm"
     inkscape:current-layer="layer1"
     showgrid="false"
     units="px"
     inkscape:window-width="1920"
     inkscape:window-height="1001"
     inkscape:window-x="-9"
     inkscape:window-y="-9"
     inkscape:window-maximized="1"
     inkscape:snap-bbox="true"
     inkscape:bbox-nodes="true"
     inkscape:snap-bbox-midpoints="false"
     inkscape:object-paths="true"
     inkscape:object-nodes="true"
     inkscape:snap-global="false" />
  <metadata
     id="metadata917">
    <rdf:RDF>
      <cc:Work
         rdf:about="">
        <dc:format>image/svg+xml</dc:format>
        <dc:type
           rdf:resource="http://purl.org/dc/dcmitype/StillImage" />
        <dc:title></dc:title>
      </cc:Work>
    </rdf:RDF>
  </metadata>
  <g
     inkscape:label="Layer 1"
     inkscape:groupmode="layer"
     id="layer1"
     transform="translate(0,-263.1333)">
    <circle
       style="opacity:1;fill:#0b3d91;fill-opacity:1;stroke:none;stroke-width:4.59172344;stroke-linecap:square;stroke-linejoin:bevel;stroke-miterlimit:4;stroke-dasharray:none;stroke-opacity:1"
       id="path826"
       cx="-177.10413"
       cy="218.84885"
       r="13.739867"
       transform="rotate(-42.63317)" />
    <path
       style="opacity:1;fill:#fc3d21;fill-opacity:1;stroke:none;stroke-width:4.59172344;stroke-linecap:square;stroke-linejoin:bevel;stroke-miterlimit:4;stroke-dasharray:none;stroke-opacity:1"
       d="M 31.01715,265.36071 A 4.8306481,21.116008 47.36683 0 0 13.651715,276.53804 4.8306481,21.116008 47.36683 0 0 1.3881939,294.3941 4.8306481,21.116008 47.36683 0 0 20.195221,283.64557 4.8306481,21.116008 47.36683 0 0 32.458099,265.79016 4.8306481,21.116008 47.36683 0 0 31.01715,265.36071 Z m -1.871045,2.57413 a 2.9898066,17.544309 47.36683 0 1 0.532469,0.20089 2.9898066,17.544309 47.36683 0 1 -10.882451,14.08241 2.9898066,17.544309 47.36683 0 1 -14.9323034,9.68359 2.9898066,17.544309 47.36683 0 1 10.8824504,-14.08241 2.9898066,17.544309 47.36683 0 1 14.399835,-9.88448 z"
       id="path828"
       inkscape:connector-curvature="0" />
    <path
       style="opacity:1;fill:#0b3d91;fill-opacity:1;stroke:none;stroke-width:4.59172344;stroke-linecap:square;stroke-linejoin:bevel;stroke-miterlimit:4;stroke-dasharray:none;stroke-opacity:1"
       d="m 8.4743138,270.70475 c -5.2485587,4.8431 -5.9682992,12.73704 -1.6672824,18.33644 3.6087576,-1.67464 9.2315076,-6.4162 11.0793456,-8.1059 2.042151,-1.99044 6.466638,-6.01605 8.965223,-10.20939 -5.142956,-4.88979 -13.08643,-4.88588 -18.3772862,-0.0212 z"
       id="path826-0"
       inkscape:connector-curvature="0"
       sodipodi:nodetypes="cccccc" />
    <path
       style="opacity:1;fill:#041532;fill-opacity:1;stroke:none;stroke-width:4.59172344;stroke-linecap:square;stroke-linejoin:bevel;stroke-miterlimit:4;stroke-dasharray:none;stroke-opacity:1"
       d="m 26.673794,270.36229 c -2.610687,3.96914 -7.213889,8.06276 -9.256039,10.05319 -1.837742,1.68047 -7.227313,6.5311 -10.782021,8.39789 0.2797452,0.37491 0.7497516,0.96312 1.0662571,1.30756 0.1407312,0.14893 0.2847763,0.30872 0.4320273,0.4512 2.9124106,-1.75596 6.8692866,-4.85174 10.6964266,-8.37465 4.035863,-3.71703 7.49102,-7.48865 9.422678,-10.28025 -0.300883,-0.3553 -1.110153,-1.16175 -1.579329,-1.55494 z"
       id="path826-0-5"
       inkscape:connector-curvature="0"
       sodipodi:nodetypes="cccccccc" />
    <path
       style="fill:#041532;fill-opacity:1;stroke:none;stroke-width:0.32965416px;stroke-linecap:butt;stroke-linejoin:miter;stroke-opacity:1"
       d="m 4.9645595,285.85604 0.7832621,1.62418 c -0.9715309,1.32839 -1.2287657,1.94249 -1.7153059,2.78589 l -2.746688,1.77943 c 0.2784752,-0.78676 0.9699119,-2.94827 3.6787318,-6.1895 z"
       id="path1550"
       inkscape:connector-curvature="0"
       sodipodi:nodetypes="ccccc" />
    <path
       style="fill:#0b3d91;fill-opacity:1;stroke:none;stroke-width:0.32965416px;stroke-linecap:butt;stroke-linejoin:miter;stroke-opacity:1"
       d="m 4.834049,292.06477 c 0,0 -2.7090938,1.05208 -3.7320522,0.71103 0.092579,-0.56456 0.4205489,-1.46448 0.6809093,-2.01321 l 2.2764102,-0.54311 c 0,0 -1.1722475,2.20829 0.7747327,1.84529 z"
       id="path1552"
       inkscape:connector-curvature="0"
       sodipodi:nodetypes="ccccc" />
    <path
       style="fill:#041532;fill-opacity:1;stroke:none;stroke-width:0.32965416px;stroke-linecap:butt;stroke-linejoin:miter;stroke-opacity:1"
       d="m 25.367829,269.50237 c 0,0 1.850574,-1.11504 2.841195,-1.37912 0.549717,-0.8418 1.099436,-1.6806 1.649153,-2.56232 -0.61884,0.14064 -3.091021,0.99917 -6.051255,2.98051 0,0 1.170807,0.67865 1.560907,0.96093 z"
       id="path1558"
       inkscape:connector-curvature="0"
       sodipodi:nodetypes="ccccc" />
    <path
       style="fill:#0b3d91;fill-opacity:1;stroke:none;stroke-width:0.32965416;stroke-linecap:butt;stroke-linejoin:miter;stroke-miterlimit:4;stroke-dasharray:none;stroke-opacity:1"
       d="m 31.326845,265.35556 c -0.71722,-0.0273 -1.468636,0.20539 -1.468636,0.20539 l -1.648914,2.56254 c 1.879976,-0.62582 1.719812,0.76926 1.247205,1.78927 l 2.551065,-4.42561 c -0.202287,-0.085 -0.441648,-0.12249 -0.68072,-0.13159 z"
       id="path1560"
       inkscape:connector-curvature="0"
       sodipodi:nodetypes="sccccs" />
  </g>
</svg>
